<?xml version="1.0" encoding="utf-8"?>
<!-- Generator: Adobe Illustrator 24.1.1, SVG Export Plug-In . SVG Version: 6.00 Build 0)  -->
<svg version="1.2" baseProfile="tiny" id="Layer_1" xmlns="http://www.w3.org/2000/svg" xmlns:xlink="http://www.w3.org/1999/xlink"
	 x="0px" y="0px" viewBox="0 0 300 300" xml:space="preserve">
<g>
	<path d="M200.4,54.6L149.7,3.9L76.4,77.2l0.1,0.1L3.8,150.1l0,0c0,0,36.3,36.3,41.5,41.5c6.7,6.7,13.3,14.2,21,20.9
		c11.1,9.6,24.6,17.5,44.7,18.9c2.1,0.2,4.3,0.2,6.6,0.2c39,0,47.4-35.8,47.4-35.8l-18.9-19.7c0,0,2.2,36.4-33,36.4
		c-9.7,0-19.3-0.8-36.3-15.5l-46.1-46.1c-0.3-0.3-0.5-0.6-0.8-0.8v0L83.6,96l31.2,30.4c1,1,2.2,1.7,3.5,2.2l16.9,6.4l-6.4-16.9
		c-0.5-1.3-1.2-2.5-2.2-3.5L96.1,83.3l53.4-53.4c7.8,7.6,17.6,17.3,25.5,25.1l18,18c18.2,19.6,19.1,29.8,19.1,40.3
		c0,35.2-36.4,33-36.4,33l19.7,18.9c0,0,35.8-8.4,35.8-47.4c0-2.4-0.1-4.7-0.3-7l0.1,0.1c-1.4-20.1-9.3-33.6-18.9-44.7l-3.9-3.9
		C205.6,59.7,203,57.2,200.4,54.6z"/>
	<path d="M241.7,117.7c0,1.1,0,2.1-0.1,3.1l28.8,28.8L216.1,204c-6.4-6.5-37.5-38.2-40.6-41.3c-3.4-3.4-14.1-14.7-14.1-36
		c0-32.1,36.1-31.5,36.1-31.5l-18.3-18.3c0,0-35.6,6.6-35.6,42.3c0,22.3,6,30.2,6.5,30.7c-0.8-0.6-8.8-6.4-30.7-6.4
		c-35.7,0-42.3,35.6-42.3,35.6l18.3,18.3c0,0-0.5-36.1,31.5-36.1c21.3,0,32.6,10.7,36,14.1c3,3,34.7,34.1,41.3,40.6l-54.5,54.5
		L121,241.4c-1,0.1-2,0.1-3.1,0.1c-2.3,0-4.4-0.1-6.6-0.2c-7.8-0.5-14.6-2.1-20.6-4.3l59.1,59.1l73.2-73.2l0,0l73.2-73.2l-59.1-59.1
		c2.2,6,3.7,12.8,4.3,20.6C241.6,113.2,241.7,115.4,241.7,117.7z"/>
</g>
</svg>
